Coordinates
nRows=265
nColumns=2
inDegrees=yes
endheader
time	ankle_angle_r	
3.02722	 18.768311	
3.06048	 18.699635	
3.09375	 18.703369	
3.12702	 18.737793	
3.16028	 18.703176	
3.19355	 18.726730	
3.22681	 18.715860	
3.26008	 18.726923	
3.29335	 18.757538	
3.32661	 18.711857	
3.35988	 18.727213	
3.39315	 18.716827	
3.42641	 18.701761	
3.45968	 18.692017	
3.49294	 18.732727	
3.52621	 18.692017	
3.55948	 18.651499	
3.59274	 18.666855	
3.62601	 18.621176	
3.65927	 18.615723	
3.69254	 18.667145	
3.72581	 18.615723	
3.75907	 18.609884	
3.79234	 18.655563	
3.8256	 18.579172	
3.85887	 18.585205	
3.89214	 18.628174	
3.9254	 18.578882	
3.95867	 18.585205	
3.99194	 18.615723	
4.0252	 18.600464	
4.05847	 18.576656	
4.09173	 18.615723	
4.125	 18.556141	
4.15827	 18.568686	
4.19153	 18.599398	
4.2248	 18.569946	
4.25806	 18.577236	
4.29133	 18.608335	
4.3246	 18.592396	
4.35786	 18.562267	
4.39113	 18.638563	
4.4244	 18.592691	
4.45766	 18.577335	
4.49093	 18.615723	
4.52419	 18.592402	
4.55746	 18.585205	
4.59073	 18.623980	
4.62399	 18.615723	
4.65726	 18.600464	
4.69052	 18.654787	
4.72379	 18.609106	
4.75706	 18.637501	
4.79032	 18.661499	
4.82359	 18.639915	
4.85685	 18.664927	
4.89012	 18.676758	
4.92339	 18.661499	
4.95665	 18.652180	
4.98992	 18.724802	
5.02319	 18.672991	
5.05645	 18.676758	
5.08972	 18.655947	
5.12298	 18.640785	
5.15625	 18.672216	
5.18952	 18.656765	
5.22278	 18.605629	
5.25605	 18.651308	
5.28931	 18.651213	
5.32258	 18.610847	
5.35585	 18.651018	
5.38911	 18.656816	
5.42238	 18.611137	
5.45565	 18.620211	
5.48891	 18.646240	
5.52218	 18.600464	
5.55544	 18.635180	
5.58871	 18.646240	
5.62198	 18.607712	
5.65524	 18.646240	
5.68851	 18.657688	
5.72177	 18.619438	
5.75504	 18.646240	
5.78831	 18.676758	
5.82157	 18.603889	
5.85484	 18.658171	
5.8881	 18.658268	
5.92137	 18.615723	
5.95464	 18.634020	
5.9879	 18.636864	
6.02117	 18.628136	
6.05444	 18.643492	
6.0877	 18.679409	
6.12097	 18.600464	
6.15423	 18.643782	
6.1875	 18.656776	
6.22077	 18.602728	
6.25403	 18.620058	
6.2873	 18.646240	
6.32056	 18.627031	
6.35383	 18.648119	
6.3871	 18.673195	
6.42036	 18.630981	
6.45363	 18.659910	
6.4869	 18.646240	
6.52016	 18.630981	
6.55343	 18.646240	
6.58669	 18.645039	
6.61996	 18.629877	
6.65323	 18.659483	
6.68649	 18.615723	
6.71976	 18.630167	
6.75302	 18.645523	
6.78629	 18.585205	
6.81956	 18.630457	
6.85282	 18.615723	
6.88609	 18.585205	
6.91935	 18.600229	
6.95262	 18.615723	
6.98589	 18.585163	
7.01915	 18.585260	
7.05242	 18.600769	
7.08569	 18.585455	
7.11895	 18.585205	
7.15222	 18.630981	
7.18548	 18.584665	
7.21875	 18.586477	
7.25202	 18.615723	
7.28528	 18.570776	
7.31855	 18.598612	
7.35181	 18.602509	
7.38508	 18.585205	
7.41835	 18.569946	
7.45161	 18.618347	
7.48488	 18.599054	
7.51815	 18.559206	
7.55141	 18.629379	
7.58468	 18.585205	
7.61794	 18.581614	
7.65121	 18.629089	
7.68448	 18.598475	
7.71774	 18.587292	
7.75101	 18.646240	
7.78427	 18.618002	
7.81754	 18.589958	
7.85081	 18.663971	
7.88407	 18.618292	
7.91734	 18.648907	
7.9506	 18.686491	
7.98387	 18.643381	
8.01714	 18.600464	
8.0504	 18.716429	
8.08367	 18.688868	
8.11694	 18.661499	
8.1502	 18.715849	
8.18347	 18.703836	
8.21673	 18.688480	
8.25	 18.715267	
8.28327	 18.680487	
8.31653	 18.672932	
8.3498	 18.726458	
8.38306	 18.665520	
8.41633	 18.725443	
8.4496	 18.733580	
8.48286	 18.696327	
8.51613	 18.728979	
8.5494	 18.748549	
8.58266	 18.717934	
8.61593	 18.737793	
8.64919	 18.757845	
8.68246	 18.702385	
8.71573	 18.742779	
8.74899	 18.758135	
8.78226	 18.676758	
8.81552	 18.747774	
8.84879	 18.762938	
8.88206	 18.692017	
8.91532	 18.726660	
8.94859	 18.737793	
8.98185	 18.701515	
9.01512	 18.747194	
9.04839	 18.722534	
9.08165	 18.737793	
9.11492	 18.734827	
9.14819	 18.737793	
9.18145	 18.694595	
9.21472	 18.761873	
9.24798	 18.753052	
9.28125	 18.737793	
9.31452	 18.722534	
9.34778	 18.761486	
9.38105	 18.722534	
9.41431	 18.744810	
9.44758	 18.731710	
9.48085	 18.661499	
9.51411	 18.676113	
9.54738	 18.692017	
9.58065	 18.653999	
9.61391	 18.669031	
9.64718	 18.661499	
9.68044	 18.630981	
9.71371	 18.638353	
9.74698	 18.669483	
9.78024	 18.608545	
9.81351	 18.646240	
9.84677	 18.660210	
9.88004	 18.600464	
9.91331	 18.647917	
9.94657	 18.654804	
9.97984	 18.609125	
10.0131	 18.630981	
10.0464	 18.663948	
10.0796	 18.615723	
10.1129	 18.655287	
10.1462	 18.640125	
10.1794	 18.624964	
10.2127	 18.640320	
10.246	 18.640415	
10.2792	 18.594736	
10.3125	 18.636612	
10.3458	 18.660154	
10.379	 18.625544	
10.4123	 18.646240	
10.4456	 18.610477	
10.4788	 18.646055	
10.5121	 18.641190	
10.5454	 18.626026	
10.5786	 18.682301	
10.6119	 18.661499	
10.6452	 18.609793	
10.6784	 18.641672	
10.7117	 18.702805	
10.745	 18.652750	
10.7782	 18.641962	
10.8115	 18.748871	
10.8448	 18.696100	
10.878	 18.669474	
10.9113	 18.726425	
10.9446	 18.695810	
10.9778	 18.699881	
11.0111	 18.726135	
11.0444	 18.692017	
11.0776	 18.685202	
11.1109	 18.715912	
11.1442	 18.722534	
11.1774	 18.695133	
11.2107	 18.737793	
11.244	 18.679682	
11.2772	 18.664326	
11.3105	 18.735062	
11.3437	 18.664133	
11.377	 18.689480	
11.4103	 18.735352	
11.4435	 18.676758	
11.4768	 18.674511	
11.5101	 18.694166	
11.5433	 18.680866	
11.5766	 18.705318	
11.6099	 18.692017	
11.6431	 18.680285	
11.6764	 18.692017	
11.7097	 18.693586	
11.7429	 18.649187	
11.7762	 18.583828	
11.8095	 18.644960	
